<?xml version="1.0" encoding="utf-8"?>
<!-- Generator: Adobe Illustrator 17.0.0, SVG Export Plug-In . SVG Version: 6.00 Build 0)  -->
<!DOCTYPE svg PUBLIC "-//W3C//DTD SVG 1.1//EN" "http://www.w3.org/Graphics/SVG/1.1/DTD/svg11.dtd">
<svg version="1.1" id="Layer_1" xmlns="http://www.w3.org/2000/svg" xmlns:xlink="http://www.w3.org/1999/xlink" x="0px" y="0px"
	 width="49.157px" height="44px" viewBox="0 0 49.157 44" enable-background="new 0 0 49.157 44" xml:space="preserve">
<g>
	<path fill="#BB4F4F" d="M24.578,2.667C13.901,2.667,5.245,11.323,5.245,22s8.656,19.333,19.333,19.333S43.912,32.678,43.912,22
		S35.256,2.667,24.578,2.667z M28.805,13.22c0-0.456,0.37-0.827,0.826-0.827c0.456,0,0.827,0.37,0.827,0.827v2.977
		c0,0.456-0.37,0.827-0.827,0.827c-0.456,0-0.826-0.37-0.826-0.827V13.22z M18.849,13.22c0-0.456,0.37-0.827,0.826-0.827
		c0.456,0,0.827,0.37,0.827,0.827v2.977c0,0.456-0.37,0.827-0.827,0.827c-0.457,0-0.826-0.37-0.826-0.827V13.22z M34.279,31.607
		H14.877V13.938h3.7v0.875c-0.344,0.304-0.562,0.747-0.562,1.242c0,0.917,0.743,1.661,1.66,1.661s1.66-0.743,1.66-1.661
		c0-0.495-0.218-0.938-0.562-1.242v-0.875h7.758v0.875c-0.344,0.304-0.562,0.747-0.562,1.242c0,0.917,0.743,1.661,1.66,1.661
		c0.917,0,1.66-0.743,1.66-1.661c0-0.495-0.218-0.938-0.562-1.242v-0.875h3.55V31.607z"/>
	<rect x="16.649" y="18.797" fill="#BB4F4F" width="15.858" height="11.038"/>
</g>
</svg>
