<?xml version="1.0" encoding="utf-8"?>
<!-- Generator: Adobe Illustrator 17.0.0, SVG Export Plug-In . SVG Version: 6.00 Build 0)  -->
<!DOCTYPE svg PUBLIC "-//W3C//DTD SVG 1.1//EN" "http://www.w3.org/Graphics/SVG/1.1/DTD/svg11.dtd">
<svg version="1.1" id="Layer_1" xmlns="http://www.w3.org/2000/svg" xmlns:xlink="http://www.w3.org/1999/xlink" x="0px" y="0px"
	 width="43.155px" height="40.5px" viewBox="0 0 43.155 40.5" enable-background="new 0 0 43.155 40.5" xml:space="preserve">
<g>
	<path fill="#16937B" d="M21.464,11.704c-2.177-2.159-5.707-2.143-7.864,0.035c-2.159,2.178-2.143,5.706,0.034,7.864
		c2.179,2.159,5.707,2.144,7.865-0.034C23.658,17.392,23.642,13.864,21.464,11.704z M13.864,12.434
		c4.593-3.525,8.891-0.163,8.118,4.851C20.191,13.088,18.293,11.789,13.864,12.434z"/>
	<path fill="#16937B" d="M22.221,0.917c-10.677,0-19.333,8.656-19.333,19.333s8.656,19.333,19.333,19.333
		c10.678,0,19.333-8.656,19.333-19.333S32.898,0.917,22.221,0.917z M33.266,31.212c-0.649,0.655-1.802,0.569-2.572-0.196
		l-5.954-5.899l-0.213-0.209l0.001-0.001l-0.014-0.014c-0.041-1.243-1.889-2.981-2.721-3.914c-2.661,2.123-6.56,1.966-9.038-0.488
		c-2.666-2.644-2.684-6.963-0.04-9.63c2.641-2.666,6.961-2.685,9.627-0.042c2.475,2.454,2.667,6.351,0.569,9.031
		c1.062,1.09,2.372,2.596,3.961,2.666l0.4,0.393L27.27,22.91l5.779,5.728C33.82,29.402,33.918,30.555,33.266,31.212z"/>
	<polygon fill="#16937B" points="27.27,22.91 26.872,22.516 24.527,24.906 24.74,25.116 24.927,25.301 	"/>
</g>
</svg>
