<?xml version="1.0" encoding="utf-8"?>
<!-- Generator: Adobe Illustrator 17.0.0, SVG Export Plug-In . SVG Version: 6.00 Build 0)  -->
<!DOCTYPE svg PUBLIC "-//W3C//DTD SVG 1.1//EN" "http://www.w3.org/Graphics/SVG/1.1/DTD/svg11.dtd">
<svg version="1.1" id="Layer_1" xmlns="http://www.w3.org/2000/svg" xmlns:xlink="http://www.w3.org/1999/xlink" x="0px" y="0px"
	 width="43.155px" height="40.5px" viewBox="0 0 43.155 40.5" enable-background="new 0 0 43.155 40.5" xml:space="preserve">
<path fill="#9BD093" d="M21.821,1.283c-10.678,0-19.333,8.656-19.333,19.333S11.144,39.95,21.821,39.95
	c10.677,0,19.333-8.656,19.333-19.333S32.499,1.283,21.821,1.283z M16.329,29.442c-0.262,0.257-0.596,0.384-0.935,0.384
	c-0.342,0-0.682-0.131-0.943-0.394c-0.261-0.264-0.392-0.607-0.392-0.951c0-0.345,0.131-0.688,0.392-0.952l5.98-6.031l1.147,1.308
	L16.329,29.442z M29.899,29.429c-0.261,0.264-0.601,0.394-0.944,0.394c-0.339,0-0.676-0.129-0.937-0.387l-8.14-9.294l-0.674,0.68
	c-0.359,0.362-1.029,0.275-1.495-0.196l-5.525-5.571l0.679-0.685l4.881,4.922l0.696-0.701l-4.882-4.923l0.713-0.718l4.882,4.922
	l0.695-0.701l-4.882-4.923l0.681-0.684l5.524,5.57c0.467,0.471,0.553,1.147,0.194,1.509l-0.674,0.68l9.217,8.208
	c0.256,0.263,0.384,0.604,0.384,0.946C30.289,28.823,30.161,29.166,29.899,29.429z M31.133,13.693l-6.272,8.373
	c-0.061,0.06-0.128,0.111-0.2,0.154l-2.627-2.341l8.404-8.473l0.695,0.702c0.219,0.219,0.326,0.505,0.326,0.793
	C31.459,13.187,31.383,13.442,31.133,13.693z"/>
</svg>
