<?xml version="1.0" encoding="utf-8"?>
<!-- Generator: Adobe Illustrator 17.0.0, SVG Export Plug-In . SVG Version: 6.00 Build 0)  -->
<!DOCTYPE svg PUBLIC "-//W3C//DTD SVG 1.1//EN" "http://www.w3.org/Graphics/SVG/1.1/DTD/svg11.dtd">
<svg version="1.1" id="Layer_1" xmlns="http://www.w3.org/2000/svg" xmlns:xlink="http://www.w3.org/1999/xlink" x="0px" y="0px"
	 width="43.155px" height="40.5px" viewBox="0 0 43.155 40.5" enable-background="new 0 0 43.155 40.5" xml:space="preserve">
<path fill="#8A5723" d="M21.333,1.127C10.656,1.127,2,9.783,2,20.46c0,10.677,8.656,19.333,19.333,19.333
	c10.678,0,19.333-8.656,19.333-19.333C40.667,9.783,32.011,1.127,21.333,1.127z M22.961,33.315h-3.255v-1.019h3.255V33.315z
	 M24.212,31.237h-5.758v-1.803h5.758V31.237z M28.385,15.878c-0.089,0.974-0.373,1.901-0.822,2.758
	c-0.028,0.048-2.689,4.821-2.689,7.803l-0.091,0.883c-0.144,0.589-0.444,0.888-0.894,0.888h-5.113c-0.448,0-0.749-0.299-0.893-0.888
	l-0.09-0.883c0-2.982-2.662-7.755-2.667-7.803c-0.471-0.856-0.756-1.784-0.844-2.758l-0.03-0.651c0-1.891,0.736-3.669,2.073-5.006
	c1.338-1.339,3.116-2.076,5.008-2.076c0.68,0,1.353,0.096,1.999,0.286c1.131,0.333,2.171,0.952,3.01,1.79
	c1.337,1.337,2.073,3.115,2.073,5.006L28.385,15.878z"/>
</svg>
