<?xml version="1.0" encoding="utf-8"?>
<!-- Generator: Adobe Illustrator 17.0.0, SVG Export Plug-In . SVG Version: 6.00 Build 0)  -->
<!DOCTYPE svg PUBLIC "-//W3C//DTD SVG 1.1//EN" "http://www.w3.org/Graphics/SVG/1.1/DTD/svg11.dtd">
<svg version="1.1" id="Layer_1" xmlns="http://www.w3.org/2000/svg" xmlns:xlink="http://www.w3.org/1999/xlink" x="0px" y="0px"
	 width="43.155px" height="40.5px" viewBox="0 0 43.155 40.5" enable-background="new 0 0 43.155 40.5" xml:space="preserve">
<g>
	<path fill="#F2E496" d="M21.125,19.933c-1.098,0.287-1.476,0.689-1.466,0.971c0.011,0.32,0.504,0.747,1.537,1.029l-0.015-2.015
		L21.125,19.933z"/>
	<path fill="#F2E496" d="M23.699,20.904c0-0.005,0-0.009,0-0.011c0-0.281-0.384-0.678-1.467-0.96l-0.057-0.015
		c-0.004-0.001-0.01-0.003-0.015-0.004l-0.015,2.024C23.189,21.656,23.686,21.226,23.699,20.904z"/>
	<path fill="#F2E496" d="M23.195,24.427c0-0.021-0.001-0.041-0.003-0.062c-0.04-0.44-0.477-0.846-1.059-1.04l-0.016,2.16
		C22.799,25.21,23.195,24.839,23.195,24.427z"/>
	<path fill="#F2E496" d="M22.679,28.039c0-0.022-0.001-0.045-0.003-0.066c-0.022-0.33-0.232-0.651-0.57-0.943l-0.016,2.134
		C22.462,28.782,22.679,28.4,22.679,28.039z"/>
	<path fill="#F2E496" d="M20.591,31.641c0,0.402,0.288,0.839,0.689,1.258l-0.017-2.181C20.826,30.993,20.591,31.301,20.591,31.641z"
		/>
	<path fill="#F2E496" d="M20.164,24.365c-0.003,0.021-0.003,0.042-0.003,0.062c0,0.409,0.39,0.777,1.062,1.053l-0.016-2.15
		C20.634,23.525,20.203,23.929,20.164,24.365z"/>
	<path fill="#F2E496" d="M22.766,31.641L22.766,31.641c-0.001-0.345-0.241-0.656-0.688-0.933l-0.017,2.202
		C22.472,32.486,22.766,32.044,22.766,31.641z"/>
	<path fill="#F2E496" d="M20.681,27.973c-0.026,0.379,0.176,0.785,0.57,1.19l-0.016-2.122
		C20.906,27.331,20.702,27.647,20.681,27.973z"/>
	<path fill="#F2E496" d="M20.541,14.331c-0.376,0.155-0.696,0.21-0.959,0.206c0.254,0.015,0.495,0.08,0.747,0.214
		c0.296,0.158,0.496,0.402,0.532,0.651c0.03,0.194-0.038,0.383-0.19,0.533c-0.242,0.242-0.522,0.36-0.83,0.352
		c-0.013-0.001-0.025-0.009-0.037-0.01c-0.017,0.001-0.034,0.007-0.05,0.005c-0.007-0.001-0.018-0.002-0.023-0.002
		c-0.294-0.035-0.45-0.179-0.536-0.317c-0.158,0.164-0.396,0.472-0.396,0.823c0,0.066,0.009,0.134,0.028,0.202
		c0.091,0.335,0.54,0.946,2.343,1.432l-0.034-4.486C20.966,14.094,20.774,14.236,20.541,14.331z"/>
	<path fill="#F2E496" d="M21.672,1.259c-10.677,0-19.333,8.656-19.333,19.333c0,10.678,8.656,19.333,19.333,19.333
		c10.678,0,19.333-8.656,19.333-19.333C41.005,9.915,32.349,1.259,21.672,1.259z M33.72,13.608c-0.08,0.216-0.245,0.356-1.5,0.162
		c0,0.002,0,0.004,0,0.006c0,0.083-0.029,0.147-0.056,0.19c-0.11,0.177-0.318,0.323-1.42,0.068
		c-0.016,0.051-0.038,0.094-0.057,0.118c-0.083,0.108-0.236,0.299-1.237,0.041c-0.015,0.03-0.032,0.062-0.057,0.089
		c-0.088,0.09-0.266,0.266-1.352-0.021c-0.032,0.063-0.076,0.119-0.137,0.161c-0.103,0.068-0.361,0.243-1.615-0.146
		c-0.019,0.04-0.043,0.07-0.061,0.089c-0.105,0.115-0.297,0.323-1.696-0.159c-0.034,0.057-0.079,0.111-0.137,0.155
		c-0.123,0.094-0.317,0.161-0.567,0.175c0.148-0.004,0.3,0.004,0.466,0.038c0.427,0.087,0.957,0.536,1.284,1.09
		c0.308,0.521,0.398,1.058,0.255,1.516c-0.283,0.908-1.279,1.538-2.325,1.982c1.207,0.559,1.54,1.188,1.54,1.693
		c0,0.023,0,0.045-0.002,0.068c-0.04,0.73-0.721,1.363-1.606,1.785c0.523,0.354,0.852,0.808,0.907,1.322
		c0.088,0.806-0.491,1.577-1.603,2.16c0.65,0.486,0.829,1.058,0.863,1.424c0.004,0.057,0.007,0.115,0.007,0.173
		c0,0.773-0.462,1.575-1.25,2.219c0.003,0.002,0.006,0.004,0.01,0.006c0.772,0.456,1.14,1.023,1.094,1.688
		c-0.051,0.727-0.599,1.422-1.263,2.003c0.589,0.44,1.198,0.807,1.565,0.998c0.098,0.05,0.152,0.149,0.152,0.251
		c0,0.039-0.009,0.081-0.027,0.119c-0.064,0.138-0.224,0.2-0.364,0.143c-0.268-0.111-0.854-0.409-1.48-0.828l-0.009,1.175
		c-0.001,0.155-0.128,0.281-0.283,0.281h-0.174c-0.156,0-0.284-0.126-0.284-0.281l-0.009-1.166c-0.62,0.414-1.199,0.707-1.465,0.817
		c-0.14,0.059-0.299-0.004-0.364-0.142c-0.018-0.037-0.027-0.08-0.027-0.119c0-0.102,0.056-0.201,0.152-0.251
		c0.367-0.192,0.974-0.56,1.562-1.001c-0.662-0.58-1.209-1.274-1.26-2c-0.003-0.038-0.004-0.073-0.004-0.111
		c0-0.616,0.369-1.146,1.098-1.576c0.004-0.002,0.006-0.004,0.01-0.007c-0.788-0.644-1.25-1.446-1.25-2.218
		c0-0.058,0.003-0.117,0.008-0.173c0.033-0.366,0.212-0.937,0.862-1.424c-1.038-0.545-1.611-1.253-1.611-2
		c0-0.053,0.002-0.105,0.008-0.16c0.056-0.514,0.385-0.968,0.908-1.322c-0.885-0.422-1.565-1.056-1.606-1.785
		c-0.002-0.023-0.002-0.046-0.002-0.068c0-0.505,0.333-1.134,1.539-1.693c-1.046-0.444-2.042-1.075-2.324-1.983
		c-0.044-0.141-0.067-0.291-0.067-0.446c0-0.345,0.109-0.712,0.321-1.071c0.33-0.554,0.859-1.003,1.285-1.09
		c0.158-0.032,0.304-0.041,0.446-0.039c-0.247-0.015-0.44-0.081-0.562-0.174c-0.058-0.045-0.103-0.098-0.138-0.155
		c-1.397,0.483-1.588,0.274-1.695,0.159c-0.017-0.019-0.041-0.049-0.061-0.089c-1.253,0.39-1.513,0.213-1.614,0.146
		c-0.062-0.042-0.106-0.099-0.138-0.161c-1.09,0.287-1.26,0.116-1.352,0.019c-0.026-0.024-0.042-0.057-0.058-0.087
		c-1.001,0.258-1.151,0.068-1.237-0.042c-0.018-0.023-0.039-0.066-0.057-0.117c-1.101,0.255-1.309,0.109-1.421-0.068
		c-0.026-0.043-0.054-0.107-0.054-0.19c0-0.002,0-0.004,0.001-0.006c-1.257,0.193-1.422,0.055-1.501-0.162
		c-0.112-0.305,0.233-0.506,0.399-0.602c0.203-0.119,0.562-0.236,1.102-0.412c1.376-0.449,3.678-1.2,5.723-2.789
		c1.435-1.117,2.328-0.899,2.733-0.67c0.456,0.258,0.71,0.773,0.645,1.308c-0.071,0.578-0.495,1.043-1.105,1.215
		c-0.517,0.146-0.634,0.331-0.636,0.372c0,0.013,0.025,0.047,0.09,0.076c0.184,0.081,0.676,0.089,1.213-0.473
		c-0.005,0.004-0.01,0.01-0.015,0.018c0.186-0.232,0.701-0.527,1.346-0.084l-0.012-1.635c-0.496-0.218-0.844-0.713-0.844-1.288
		c0-0.778,0.633-1.41,1.409-1.41s1.409,0.632,1.409,1.41c0,0.575-0.348,1.07-0.844,1.288l-0.012,1.636
		c0.648-0.45,1.163-0.15,1.349,0.082c-0.005-0.006-0.01-0.011-0.015-0.018c0.535,0.561,1.028,0.554,1.214,0.473
		c0.065-0.028,0.089-0.062,0.088-0.076c-0.003-0.041-0.119-0.226-0.636-0.372c-0.612-0.172-1.034-0.636-1.104-1.215
		c-0.065-0.536,0.188-1.05,0.644-1.308c0.404-0.23,1.299-0.448,2.734,0.67c2.044,1.589,4.346,2.34,5.723,2.789
		c0.541,0.176,0.897,0.293,1.101,0.412C33.486,13.101,33.831,13.302,33.72,13.608z"/>
	<path fill="#F2E496" d="M24.516,16.981c0.019-0.069,0.028-0.139,0.028-0.207c0-0.351-0.231-0.651-0.383-0.811
		c-0.084,0.133-0.232,0.272-0.507,0.313c-0.026,0.003-0.052,0.002-0.077-0.002c-0.017,0.004-0.032,0.013-0.05,0.014
		c-0.314,0.01-0.597-0.107-0.842-0.352c-0.151-0.15-0.22-0.34-0.191-0.533c0.038-0.25,0.237-0.493,0.533-0.651
		c0.249-0.132,0.487-0.198,0.738-0.213c-0.264,0.004-0.586-0.05-0.964-0.206c-0.233-0.096-0.426-0.238-0.596-0.398l-0.034,4.491
		C23.973,17.939,24.422,17.322,24.516,16.981z"/>
	<path fill="#F2E496" d="M21.776,33.183l-0.001,0.181c0.041,0.034,0.079,0.068,0.12,0.102c0.055-0.048,0.11-0.095,0.163-0.145
		l0.003-0.411C21.972,33.003,21.876,33.093,21.776,33.183z"/>
	<path fill="#F2E496" d="M21.797,30.537c0.03,0.016,0.056,0.035,0.087,0.051c0.074,0.039,0.13,0.08,0.195,0.12l0.003-0.328
		c-0.026-0.014-0.04-0.03-0.067-0.043c-0.02-0.01-0.037-0.023-0.057-0.033c-0.05,0.033-0.106,0.063-0.159,0.095L21.797,30.537z"/>
	<path fill="#F2E496" d="M21.572,34.044c-0.043-0.033-0.085-0.065-0.128-0.099c-0.052,0.038-0.104,0.072-0.156,0.109l0.003,0.342
		c0.094-0.063,0.188-0.127,0.282-0.195L21.572,34.044z"/>
	<path fill="#F2E496" d="M21.464,19.843l-0.001-0.119c-0.092-0.026-0.186-0.054-0.284-0.083l0.002,0.278l0.001,0
		C21.264,19.897,21.369,19.869,21.464,19.843z"/>
	<path fill="#F2E496" d="M21.287,33.816l0.001,0.143c0.03-0.022,0.06-0.046,0.09-0.069C21.347,33.866,21.317,33.841,21.287,33.816z"
		/>
	<path fill="#F2E496" d="M22.056,33.589l0.001-0.142c-0.029,0.026-0.058,0.051-0.087,0.076
		C21.998,33.546,22.027,33.567,22.056,33.589z"/>
	<path fill="#F2E496" d="M21.517,26.822l-0.001-0.19c-0.044-0.024-0.089-0.046-0.135-0.069c-0.052,0.034-0.1,0.069-0.148,0.105
		l0.003,0.374C21.321,26.966,21.413,26.893,21.517,26.822z"/>
	<path fill="#F2E496" d="M21.834,25.596l-0.001,0.118c0.084,0.031,0.174,0.061,0.25,0.094c0.011-0.004,0.022-0.008,0.032-0.012
		l0.002-0.311C22.025,25.523,21.938,25.563,21.834,25.596z"/>
	<path fill="#F2E496" d="M22.134,23.325l0.001-0.186c-0.095,0.02-0.189,0.035-0.283,0.05l0,0.063
		C21.949,23.27,22.043,23.295,22.134,23.325z"/>
	<path fill="#F2E496" d="M21.887,18.612c0.097,0.025,0.191,0.05,0.282,0.076l0.002-0.263c-0.094,0.025-0.182,0.051-0.283,0.076
		L21.887,18.612z"/>
	<path fill="#F2E496" d="M21.537,29.427c-0.105-0.088-0.2-0.176-0.286-0.264l0.003,0.394c0.057,0.051,0.114,0.101,0.177,0.152
		c0.035-0.024,0.074-0.048,0.107-0.072L21.537,29.427z"/>
	<path fill="#F2E496" d="M21.196,21.934l0.002,0.223c0.092-0.024,0.186-0.046,0.283-0.066l-0.001-0.088
		C21.383,21.98,21.286,21.958,21.196,21.934z"/>
	<path fill="#F2E496" d="M21.132,13.528l0.003,0.407c0.109-0.102,0.202-0.214,0.28-0.337l-0.013-1.764
		c-0.067-0.087-0.142-0.168-0.23-0.233c-0.019-0.014-0.037-0.021-0.055-0.034l0.003,0.383
		C21.468,12.331,21.512,13.003,21.132,13.528z"/>
	<path fill="#F2E496" d="M22.223,9.604c-0.084,0.049-0.173,0.083-0.269,0.109l-0.002,0.311c0.099-0.02,0.193-0.052,0.284-0.092
		l0.002-0.292C22.238,9.626,22.225,9.617,22.223,9.604z"/>
	<path fill="#F2E496" d="M21.386,9.713c-0.096-0.026-0.184-0.06-0.269-0.109c-0.002,0.013-0.015,0.022-0.015,0.036l0.002,0.292
		c0.09,0.04,0.185,0.072,0.283,0.092L21.386,9.713z"/>
	<path fill="#F2E496" d="M21.179,19.626c-0.009,0.002-0.018,0.005-0.026,0.007c0.009,0.003,0.017,0.005,0.026,0.008L21.179,19.626z"
		/>
	<path fill="#F2E496" d="M21.285,33.596c-0.045,0.035-0.09,0.07-0.135,0.104c0.045,0.039,0.091,0.078,0.137,0.116L21.285,33.596z"/>
	<path fill="#F2E496" d="M22.142,22.234c0.054-0.014,0.102-0.03,0.154-0.045c-0.049-0.014-0.103-0.023-0.154-0.036L22.142,22.234z"
		/>
	<path fill="#F2E496" d="M22.15,26.156c0.107,0.054,0.21,0.11,0.302,0.171c0.098-0.045,0.2-0.089,0.292-0.137
		c-0.084-0.063-0.176-0.124-0.277-0.183C22.364,26.057,22.264,26.108,22.15,26.156z"/>
	<path fill="#F2E496" d="M22.054,33.828c0.05-0.042,0.1-0.083,0.149-0.126c-0.049-0.037-0.098-0.075-0.147-0.113L22.054,33.828z"/>
	<path fill="#F2E496" d="M22.341,23.095c-0.066-0.026-0.136-0.045-0.205-0.066l-0.001,0.11
		C22.204,23.125,22.272,23.112,22.341,23.095z"/>
	<path fill="#F2E496" d="M21.259,30.172l-0.002-0.32c-0.006-0.005-0.012-0.008-0.018-0.013c-0.085,0.055-0.153,0.111-0.245,0.166
		c0.077,0.063,0.163,0.12,0.245,0.18C21.246,30.181,21.252,30.176,21.259,30.172z"/>
	<path fill="#F2E496" d="M22.782,22.668c0.121,0.054,0.234,0.111,0.34,0.172c0.107-0.043,0.216-0.083,0.318-0.132
		c-0.093-0.063-0.188-0.124-0.293-0.18C23.028,22.58,22.906,22.625,22.782,22.668z"/>
	<path fill="#F2E496" d="M22.084,29.863l-0.002,0.299c0.012,0.008,0.023,0.015,0.036,0.023c0.083-0.059,0.169-0.117,0.245-0.18
		c-0.09-0.053-0.171-0.107-0.254-0.16C22.101,29.852,22.092,29.857,22.084,29.863z"/>
	<path fill="#F2E496" d="M22.74,19.159c0.142,0.049,0.287,0.099,0.413,0.15c0.119-0.045,0.236-0.097,0.354-0.147
		c-0.113-0.052-0.231-0.104-0.36-0.154C23.011,19.061,22.875,19.111,22.74,19.159z"/>
	<path fill="#F2E496" d="M22.203,19.633c-0.014-0.004-0.027-0.007-0.041-0.011l0,0.023C22.176,19.641,22.189,19.637,22.203,19.633z"
		/>
	<path fill="#F2E496" d="M22.227,18.703c-0.018-0.005-0.039-0.01-0.058-0.015l0,0.03C22.188,18.713,22.208,18.708,22.227,18.703z"/>
	<path fill="#F2E496" d="M21.205,23.034c-0.064,0.019-0.129,0.037-0.19,0.061c0.064,0.016,0.126,0.029,0.19,0.042L21.205,23.034z"/>
	<path fill="#F2E496" d="M21.06,22.189c0.047,0.013,0.09,0.028,0.138,0.041l-0.001-0.073C21.153,22.168,21.104,22.176,21.06,22.189z
		"/>
	<path fill="#F2E496" d="M20.575,22.668c-0.124-0.043-0.246-0.088-0.364-0.14c-0.105,0.056-0.201,0.117-0.294,0.18
		c0.102,0.049,0.211,0.089,0.318,0.132C20.34,22.779,20.454,22.721,20.575,22.668z"/>
	<path fill="#F2E496" d="M21.207,26.156c-0.114-0.048-0.214-0.099-0.317-0.15c-0.101,0.059-0.192,0.12-0.276,0.183
		c0.091,0.048,0.192,0.092,0.291,0.138C20.996,26.267,21.099,26.211,21.207,26.156z"/>
	<path fill="#F2E496" d="M21.172,18.692c-0.014,0.004-0.029,0.008-0.042,0.011c0.014,0.004,0.028,0.007,0.042,0.011L21.172,18.692z"
		/>
	<path fill="#F2E496" d="M20.616,19.159c-0.135-0.048-0.271-0.098-0.407-0.152c-0.129,0.051-0.247,0.102-0.36,0.155
		c0.118,0.05,0.236,0.102,0.355,0.147C20.329,19.258,20.474,19.208,20.616,19.159z"/>
	<path fill="#F2E496" d="M19.582,14.537c-0.024-0.001-0.048-0.003-0.072-0.003C19.534,14.536,19.557,14.537,19.582,14.537z"/>
	<path fill="#F2E496" d="M21.453,18.496c-0.101-0.025-0.19-0.05-0.284-0.075l0.002,0.271c0.091-0.026,0.185-0.051,0.282-0.076
		L21.453,18.496z"/>
	<path fill="#F2E496" d="M21.474,30.588c0.025-0.013,0.047-0.029,0.072-0.042l-0.001-0.156c-0.047-0.029-0.098-0.056-0.144-0.086
		c-0.02,0.011-0.038,0.023-0.058,0.034c-0.032,0.017-0.051,0.036-0.082,0.053l0.003,0.328C21.333,30.675,21.394,30.63,21.474,30.588
		z"/>
	<path fill="#F2E496" d="M21.509,25.72l-0.001-0.129c-0.104-0.034-0.192-0.073-0.284-0.111l0.002,0.311
		c0.016,0.006,0.032,0.012,0.048,0.017C21.346,25.777,21.43,25.749,21.509,25.72z"/>
	<path fill="#F2E496" d="M21.861,22.087c0.097,0.019,0.19,0.042,0.282,0.066l0.002-0.214c-0.089,0.024-0.186,0.045-0.283,0.067
		L21.861,22.087z"/>
	<path fill="#F2E496" d="M21.826,26.64l-0.001,0.171c0.105,0.07,0.195,0.144,0.281,0.219l0.003-0.373
		c-0.043-0.032-0.087-0.063-0.133-0.094C21.925,26.588,21.874,26.614,21.826,26.64z"/>
	<path fill="#F2E496" d="M22.16,19.915l0.002-0.27c-0.097,0.029-0.192,0.057-0.283,0.083l-0.001,0.111
		C21.973,19.865,22.077,19.893,22.16,19.915z"/>
	<path fill="#F2E496" d="M21.805,29.432l-0.002,0.203c0.037,0.027,0.072,0.055,0.111,0.082c0.061-0.049,0.117-0.097,0.172-0.146
		l0.003-0.407C22.002,29.253,21.911,29.343,21.805,29.432z"/>
	<path fill="#F2E496" d="M21.566,33.176c-0.1-0.091-0.196-0.183-0.286-0.277l0.003,0.408c0.056,0.053,0.116,0.103,0.175,0.155
		c0.037-0.03,0.073-0.061,0.109-0.092L21.566,33.176z"/>
	<path fill="#F2E496" d="M21.489,23.187c-0.094-0.015-0.189-0.03-0.284-0.05l0.001,0.193c0.091-0.031,0.185-0.056,0.283-0.076
		L21.489,23.187z"/>
	<path fill="#F2E496" d="M22.053,33.948l0.001-0.12c-0.025,0.021-0.05,0.042-0.076,0.062C22.004,33.909,22.028,33.93,22.053,33.948z
		"/>
	<path fill="#F2E496" d="M21.911,33.945c-0.047,0.037-0.094,0.073-0.142,0.109l-0.001,0.136c0.094,0.068,0.188,0.133,0.281,0.195
		l0.003-0.342C22.006,34.01,21.958,33.979,21.911,33.945z"/>
	<path fill="#F2E496" d="M21.284,33.434l0.001,0.162c0.033-0.025,0.065-0.049,0.098-0.075C21.35,33.492,21.317,33.463,21.284,33.434
		z"/>
	<path fill="#F2E496" d="M23.827,14.535c-0.021,0.001-0.042,0.001-0.062,0.003C23.787,14.538,23.807,14.536,23.827,14.535z"/>
	<path fill="#F2E496" d="M21.938,11.837l-0.013,1.758c0.078,0.124,0.171,0.236,0.28,0.339l0.003-0.408
		c-0.376-0.523-0.333-1.191,0.012-1.572l0.003-0.385c-0.018,0.012-0.034,0.019-0.052,0.033
		C22.082,11.667,22.006,11.748,21.938,11.837z"/>
	<path fill="#F2E496" d="M21.569,18.527c0.04,0.009,0.07,0.02,0.109,0.029c0.039-0.009,0.069-0.02,0.109-0.029
		c0.037-0.009,0.065-0.018,0.101-0.027l0.037-4.906c-0.126-0.199-0.22-0.416-0.253-0.653c-0.033,0.239-0.128,0.457-0.256,0.657
		l0.037,4.898C21.494,18.506,21.526,18.517,21.569,18.527z"/>
	<path fill="#F2E496" d="M21.48,22.002c0.065,0.015,0.129,0.03,0.198,0.044c0.064-0.013,0.122-0.027,0.183-0.04l0.016-2.166
		c-0.068-0.018-0.126-0.033-0.2-0.053c-0.079,0.022-0.142,0.038-0.214,0.057L21.48,22.002z"/>
	<path fill="#F2E496" d="M21.938,11.837l0.014-1.813c-0.091,0.019-0.185,0.029-0.282,0.029s-0.191-0.01-0.282-0.029l0.014,1.81
		c0.143,0.186,0.235,0.415,0.269,0.663C21.706,12.25,21.797,12.022,21.938,11.837z"/>
	<path fill="#F2E496" d="M21.517,26.822l0.02,2.605c0.046,0.039,0.091,0.077,0.141,0.115c0.047-0.037,0.083-0.074,0.127-0.111
		l0.02-2.621c-0.048-0.032-0.095-0.064-0.147-0.095C21.621,26.751,21.57,26.786,21.517,26.822z"/>
	<path fill="#F2E496" d="M21.566,33.176c0.036,0.033,0.072,0.066,0.109,0.098c0.035-0.03,0.068-0.061,0.101-0.091l0.02-2.646
		c-0.041-0.022-0.078-0.046-0.118-0.069c-0.045,0.026-0.087,0.053-0.133,0.078L21.566,33.176z"/>
	<path fill="#F2E496" d="M21.688,23.221c-0.003,0-0.006-0.001-0.01-0.002c-0.003,0-0.006,0.001-0.01,0.002
		c-0.061,0.007-0.119,0.021-0.179,0.033l0.018,2.337c0.029,0.009,0.049,0.022,0.078,0.031c0.034,0.01,0.059,0.024,0.092,0.035
		c0.033-0.011,0.058-0.024,0.092-0.035c0.024-0.007,0.041-0.017,0.064-0.025l0.018-2.345C21.797,23.241,21.744,23.228,21.688,23.221
		z"/>
	<path fill="#F2E496" d="M21.574,34.201l0.01,1.358h0.174l0.01-1.369c-0.03-0.022-0.06-0.045-0.091-0.068
		C21.643,34.148,21.609,34.175,21.574,34.201z"/>
	<path fill="#F2E496" d="M21.567,33.371l0.001,0.19c0.037,0.031,0.072,0.063,0.11,0.094c0.032-0.026,0.063-0.054,0.095-0.081
		l0.002-0.21c-0.035-0.029-0.066-0.06-0.1-0.09C21.638,33.306,21.605,33.339,21.567,33.371z"/>
	<path fill="#F2E496" d="M21.57,33.681l0,0.059c0.013-0.01,0.025-0.02,0.038-0.03C21.595,33.7,21.582,33.691,21.57,33.681z"/>
	<path fill="#F2E496" d="M21.461,19.551l0.001,0.173c0.072,0.021,0.147,0.044,0.215,0.062c0.064-0.017,0.133-0.039,0.201-0.058
		l0.001-0.181c-0.064-0.017-0.132-0.036-0.202-0.056C21.603,19.512,21.53,19.532,21.461,19.551z"/>
	<path fill="#F2E496" d="M21.454,18.616l0.001,0.172c0.018,0.004,0.032,0.009,0.05,0.013c0.064,0.015,0.112,0.031,0.173,0.047
		c0.061-0.015,0.109-0.032,0.173-0.047c0.012-0.003,0.022-0.006,0.034-0.009l0.001-0.18c-0.072-0.018-0.134-0.038-0.209-0.056
		C21.597,18.575,21.531,18.596,21.454,18.616z"/>
	<path fill="#F2E496" d="M21.678,33.765c-0.036,0.028-0.071,0.056-0.107,0.083l0.002,0.196c0.035,0.027,0.07,0.053,0.106,0.079
		c0.031-0.023,0.061-0.045,0.092-0.068l0.002-0.218C21.74,33.813,21.709,33.789,21.678,33.765z"/>
	<path fill="#F2E496" d="M21.514,26.479l0.001,0.153c0.052,0.029,0.113,0.054,0.163,0.083c0.045-0.027,0.1-0.05,0.148-0.076
		l0.001-0.169c-0.048-0.029-0.098-0.057-0.149-0.085C21.622,26.416,21.567,26.447,21.514,26.479z"/>
	<path fill="#F2E496" d="M21.678,22.933c-0.014,0.002-0.028,0.005-0.043,0.007c-0.051,0.006-0.099,0.018-0.148,0.027l0.002,0.219
		c0.063,0.01,0.126,0.025,0.189,0.033c0.058-0.007,0.116-0.022,0.174-0.03l0.002-0.225c-0.044-0.008-0.087-0.019-0.133-0.024
		C21.707,22.939,21.693,22.935,21.678,22.933z"/>
	<path fill="#F2E496" d="M21.678,22.046c-0.033,0.006-0.06,0.014-0.093,0.021c-0.036,0.007-0.068,0.017-0.104,0.024l0.002,0.203
		c0.065,0.014,0.128,0.03,0.196,0.043c0.063-0.012,0.12-0.026,0.181-0.039l0.002-0.21c-0.03-0.006-0.058-0.015-0.089-0.021
		C21.739,22.06,21.711,22.052,21.678,22.046z"/>
	<path fill="#F2E496" d="M21.509,25.72l0.001,0.174c0.061,0.019,0.111,0.042,0.169,0.062c0.052-0.018,0.098-0.039,0.153-0.057
		l0.001-0.185c-0.052-0.019-0.1-0.04-0.155-0.058C21.617,25.676,21.565,25.699,21.509,25.72z"/>
	<path fill="#F2E496" d="M21.678,29.543c-0.041,0.032-0.096,0.063-0.139,0.094l0.001,0.154c0.046,0.035,0.09,0.07,0.138,0.105
		c0.043-0.031,0.083-0.062,0.124-0.094l0.001-0.167C21.761,29.604,21.718,29.573,21.678,29.543z"/>
	<path fill="#F2E496" d="M21.772,33.728l0-0.037c-0.008,0.006-0.016,0.012-0.024,0.018C21.757,33.716,21.764,33.722,21.772,33.728z"
		/>
	<path fill="#F2E496" d="M21.543,30.22l0.001,0.169c0.044,0.027,0.089,0.053,0.134,0.079c0.04-0.023,0.08-0.046,0.119-0.07
		l0.001-0.186c-0.04-0.023-0.082-0.046-0.121-0.07C21.634,30.169,21.588,30.194,21.543,30.22z"/>
	<path fill="#F2E496" d="M21.672,12.497c-0.019,0.138-0.024,0.279-0.005,0.425c0.001,0.007,0.004,0.013,0.005,0.019
		c0.001-0.007,0.004-0.012,0.005-0.019C21.696,12.777,21.691,12.635,21.672,12.497z"/>
	<path fill="#F2E496" d="M19.72,34.951c0.378-0.157,0.975-0.481,1.569-0.898l-0.001-0.095C20.489,34.55,19.72,34.951,19.72,34.951z"
		/>
	<path fill="#F2E496" d="M21.482,22.294c-0.096-0.021-0.194-0.041-0.284-0.065l0.002,0.217c0.09-0.024,0.187-0.045,0.283-0.065
		L21.482,22.294z"/>
	<path fill="#F2E496" d="M21.541,29.992l-0.002-0.202c-0.036-0.027-0.074-0.054-0.108-0.082c-0.057,0.04-0.115,0.079-0.175,0.118
		l0,0.025c0.075,0.059,0.157,0.114,0.238,0.169C21.51,30.012,21.527,30.002,21.541,29.992z"/>
	<path fill="#F2E496" d="M21.8,30.065l-0.001,0.147c0.052,0.03,0.103,0.062,0.157,0.091c0.044-0.029,0.083-0.062,0.126-0.092
		l0-0.049c-0.076-0.047-0.151-0.094-0.221-0.141C21.84,30.036,21.821,30.051,21.8,30.065z"/>
	<path fill="#F2E496" d="M21.46,19.429c-0.092-0.027-0.186-0.055-0.284-0.085l0.002,0.282c0.086-0.022,0.18-0.047,0.283-0.075
		L21.46,19.429z"/>
	<path fill="#F2E496" d="M21.853,25.892c-0.008,0.002-0.014,0.006-0.022,0.008l-0.001,0.113c0.099,0.039,0.193,0.08,0.282,0.124
		l0.002-0.316c-0.01-0.004-0.022-0.008-0.032-0.012C22.007,25.836,21.937,25.866,21.853,25.892z"/>
	<path fill="#F2E496" d="M21.854,22.964c0.097,0.017,0.191,0.038,0.282,0.065l0.001-0.174c-0.094,0.021-0.189,0.033-0.283,0.048
		L21.854,22.964z"/>
	<path fill="#F2E496" d="M21.514,26.479l-0.001-0.18c-0.092-0.045-0.185-0.09-0.284-0.132l0.002,0.32
		c0.053,0.024,0.099,0.052,0.15,0.077C21.424,26.535,21.469,26.507,21.514,26.479z"/>
	<path fill="#F2E496" d="M21.773,33.692c0.068-0.055,0.132-0.112,0.197-0.168c-0.025-0.02-0.05-0.038-0.075-0.057
		c-0.041,0.036-0.08,0.073-0.122,0.108L21.773,33.692z"/>
	<path fill="#F2E496" d="M22.167,18.979l0.002-0.26c-0.094,0.025-0.183,0.05-0.283,0.074l-0.001,0.111
		C21.981,18.928,22.076,18.953,22.167,18.979z"/>
	<path fill="#F2E496" d="M21.57,33.74c-0.064,0.051-0.128,0.102-0.192,0.151c0.022,0.018,0.044,0.037,0.067,0.055
		c0.043-0.031,0.084-0.065,0.126-0.097L21.57,33.74z"/>
	<path fill="#F2E496" d="M21.954,9.713l0.001-0.075h-0.569l0.001,0.075c0.093,0.025,0.183,0.058,0.284,0.058
		C21.771,9.77,21.861,9.737,21.954,9.713z"/>
	<path fill="#F2E496" d="M23.637,34.951c0,0-0.779-0.406-1.584-1.003l-0.001,0.095C22.651,34.465,23.256,34.793,23.637,34.951z"/>
	<path fill="#F2E496" d="M21.88,19.547c0.102,0.028,0.196,0.052,0.282,0.075l0.002-0.273c-0.097,0.03-0.192,0.058-0.283,0.084
		L21.88,19.547z"/>
	<path fill="#F2E496" d="M21.858,22.377c0.096,0.02,0.192,0.041,0.282,0.065l0.002-0.208c-0.09,0.023-0.188,0.043-0.283,0.063
		L21.858,22.377z"/>
	<path fill="#F2E496" d="M21.827,26.471c0.051,0.03,0.101,0.061,0.149,0.093c0.045-0.023,0.086-0.047,0.134-0.069l0.002-0.32
		c-0.099,0.042-0.193,0.087-0.284,0.132L21.827,26.471z"/>
	<path fill="#F2E496" d="M21.4,30.303c0.049-0.026,0.095-0.055,0.143-0.083l-0.001-0.166c-0.016-0.011-0.031-0.022-0.047-0.033
		c-0.075,0.05-0.155,0.1-0.236,0.15l0,0.028C21.307,30.234,21.351,30.27,21.4,30.303z"/>
	<path fill="#F2E496" d="M21.456,18.788c-0.1-0.024-0.189-0.049-0.284-0.074l0.002,0.269c0.09-0.026,0.187-0.051,0.282-0.076
		L21.456,18.788z"/>
	<path fill="#F2E496" d="M21.487,22.901c-0.095-0.016-0.189-0.029-0.284-0.05l0.001,0.183c0.092-0.028,0.186-0.049,0.283-0.067
		L21.487,22.901z"/>
	<path fill="#F2E496" d="M21.915,29.717c-0.035,0.028-0.075,0.057-0.113,0.085l-0.001,0.181c0.019,0.013,0.041,0.026,0.06,0.039
		c0.076-0.052,0.152-0.104,0.223-0.158l0-0.033C22.027,29.792,21.969,29.755,21.915,29.717z"/>
	<path fill="#F2E496" d="M21.772,33.728l-0.001,0.108c0.047,0.036,0.093,0.074,0.14,0.108c0.023-0.018,0.045-0.037,0.067-0.055
		C21.909,33.838,21.841,33.783,21.772,33.728z"/>
	<path fill="#F2E496" d="M21.51,25.894c-0.002-0.001-0.004-0.002-0.006-0.002c-0.084-0.026-0.153-0.056-0.23-0.084
		c-0.014,0.006-0.033,0.011-0.047,0.018l0.002,0.319c0.089-0.044,0.183-0.086,0.282-0.126L21.51,25.894z"/>
	<path fill="#F2E496" d="M21.458,33.463c-0.025,0.02-0.05,0.038-0.075,0.058c0.062,0.054,0.122,0.108,0.187,0.16l-0.001-0.12
		C21.531,33.529,21.495,33.496,21.458,33.463z"/>
	<path fill="#F2E496" d="M21.229,26.167l0-0.022c-0.008,0.004-0.014,0.008-0.022,0.011c0.003,0.001,0.005,0.003,0.008,0.004
		C21.22,26.162,21.224,26.165,21.229,26.167z"/>
	<path fill="#F2E496" d="M21.174,18.983c-0.199,0.057-0.385,0.116-0.558,0.176c0.192,0.068,0.38,0.13,0.56,0.185L21.174,18.983z"/>
	<path fill="#F2E496" d="M22.138,22.855c0.22-0.048,0.434-0.114,0.644-0.187c-0.195-0.086-0.407-0.163-0.641-0.226L22.138,22.855z"
		/>
	<path fill="#F2E496" d="M21.2,22.446c-0.228,0.062-0.435,0.138-0.625,0.222c0.205,0.072,0.414,0.136,0.628,0.183L21.2,22.446z"/>
	<path fill="#F2E496" d="M22.112,26.174c0.01-0.004,0.019-0.009,0.029-0.014c0.003-0.001,0.005-0.003,0.008-0.004
		c-0.013-0.006-0.025-0.013-0.038-0.02L22.112,26.174z"/>
	<path fill="#F2E496" d="M22.164,19.349c0.185-0.057,0.379-0.121,0.576-0.191c-0.177-0.062-0.368-0.122-0.573-0.18L22.164,19.349z"
		/>
	<path fill="#F2E496" d="M21.678,33.655c-0.023,0.019-0.047,0.036-0.071,0.055c0.023,0.019,0.047,0.036,0.07,0.054
		c0.023-0.018,0.047-0.036,0.071-0.055C21.725,33.691,21.702,33.674,21.678,33.655z"/>
	<path fill="#F2E496" d="M21.678,22.336c-0.015,0.003-0.028,0.007-0.043,0.009c-0.053,0.01-0.101,0.024-0.153,0.035l0.004,0.52
		c0.064,0.011,0.128,0.024,0.191,0.032c0.059-0.007,0.117-0.02,0.176-0.03l0.004-0.526c-0.047-0.01-0.089-0.023-0.137-0.032
		C21.706,22.343,21.693,22.339,21.678,22.336z"/>
	<path fill="#F2E496" d="M21.46,19.429c0.075,0.022,0.147,0.042,0.218,0.062c0.066-0.018,0.132-0.037,0.202-0.057l0.004-0.531
		c-0.07-0.018-0.133-0.038-0.206-0.055c-0.079,0.019-0.147,0.04-0.222,0.06L21.46,19.429z"/>
	<path fill="#F2E496" d="M21.541,29.992l0,0.063c0.045,0.03,0.09,0.059,0.136,0.087c0.041-0.026,0.082-0.051,0.122-0.077
		l0.001-0.082c-0.043-0.029-0.082-0.059-0.122-0.088C21.633,29.928,21.589,29.96,21.541,29.992z"/>
	<path fill="#F2E496" d="M21.511,26.019l0.002,0.28c0.057,0.028,0.111,0.057,0.165,0.087c0.049-0.027,0.098-0.054,0.15-0.08
		l0.002-0.293c-0.049-0.019-0.1-0.038-0.152-0.056C21.621,25.977,21.565,25.997,21.511,26.019z"/>
</g>
</svg>
