<?xml version="1.0" encoding="utf-8"?>
<!-- Generator: Adobe Illustrator 17.0.0, SVG Export Plug-In . SVG Version: 6.00 Build 0)  -->
<!DOCTYPE svg PUBLIC "-//W3C//DTD SVG 1.1//EN" "http://www.w3.org/Graphics/SVG/1.1/DTD/svg11.dtd">
<svg version="1.1" id="Layer_1" xmlns="http://www.w3.org/2000/svg" xmlns:xlink="http://www.w3.org/1999/xlink" x="0px" y="0px"
	 width="43.155px" height="40.5px" viewBox="0 0 43.155 40.5" enable-background="new 0 0 43.155 40.5" xml:space="preserve">
<path fill="#B1509E" d="M21.577,1.59C10.9,1.59,2.244,10.246,2.244,20.924c0,10.678,8.656,19.333,19.333,19.333
	c10.678,0,19.333-8.656,19.333-19.333C40.911,10.246,32.255,1.59,21.577,1.59z M17.28,28.27c-0.847-0.017-1.656-0.154-2.4-0.39
	l-3.454,1.488c0,0,1.169-2.368,0.098-3.744c-0.622-0.821-0.972-1.782-0.952-2.802c0.058-2.934,3.154-5.252,6.916-5.178
	c3.763,0.074,6.765,2.513,6.707,5.445C24.14,26.025,21.042,28.345,17.28,28.27z M31.727,24.203l-3.453-1.488
	c-0.745,0.237-1.553,0.375-2.401,0.388c-0.138,0.005-0.275,0.003-0.412,0c0.031-1.812-0.817-3.513-2.388-4.789
	c-1.089-0.884-2.44-1.487-3.912-1.765c0.731-2.283,3.351-4.007,6.503-4.068c3.762-0.076,6.861,2.244,6.918,5.177
	c0.021,1.02-0.33,1.98-0.953,2.802C30.557,21.836,31.727,24.203,31.727,24.203z"/>
</svg>
