<?xml version="1.0" encoding="utf-8"?>
<!-- Generator: Adobe Illustrator 17.0.0, SVG Export Plug-In . SVG Version: 6.00 Build 0)  -->
<!DOCTYPE svg PUBLIC "-//W3C//DTD SVG 1.1//EN" "http://www.w3.org/Graphics/SVG/1.1/DTD/svg11.dtd">
<svg version="1.1" id="Layer_1" xmlns="http://www.w3.org/2000/svg" xmlns:xlink="http://www.w3.org/1999/xlink" x="0px" y="0px"
	 width="43.155px" height="40.5px" viewBox="0 0 43.155 40.5" enable-background="new 0 0 43.155 40.5" xml:space="preserve">
<path fill="#68A0CE" d="M21.577,0.917C10.9,0.917,2.244,9.572,2.244,20.25S10.9,39.583,21.577,39.583s19.333-8.656,19.333-19.333
	S32.255,0.917,21.577,0.917z M24.056,28.972c-6.048,0-10.95-4.902-10.95-10.949c0-3.731,1.867-7.026,4.717-9.003
	c-1.227,1.769-1.946,3.916-1.946,6.232c0,6.048,4.902,10.95,10.95,10.95c2.316,0,4.463-0.719,6.232-1.946
	C31.083,27.105,27.787,28.972,24.056,28.972z"/>
</svg>
