<?xml version="1.0" encoding="utf-8"?>
<!-- Generator: Adobe Illustrator 17.0.0, SVG Export Plug-In . SVG Version: 6.00 Build 0)  -->
<!DOCTYPE svg PUBLIC "-//W3C//DTD SVG 1.1//EN" "http://www.w3.org/Graphics/SVG/1.1/DTD/svg11.dtd">
<svg version="1.1" id="Layer_1" xmlns="http://www.w3.org/2000/svg" xmlns:xlink="http://www.w3.org/1999/xlink" x="0px" y="0px"
	 width="43.155px" height="40.5px" viewBox="0 0 43.155 40.5" enable-background="new 0 0 43.155 40.5" xml:space="preserve">
<g>
	<path fill="#A9D7E5" d="M23.564,25.021c0-0.237-0.192-0.43-0.43-0.43s-0.429,0.192-0.429,0.43c0,2.172,1.765,3.94,3.938,3.94
		c0.237,0,0.429-0.193,0.429-0.429c0-0.238-0.192-0.43-0.429-0.43C24.945,28.1,23.564,26.718,23.564,25.021z"/>
	<path fill="#A9D7E5" d="M21.577,1.103C10.9,1.103,2.244,9.759,2.244,20.436S10.9,39.769,21.577,39.769
		c10.677,0,19.333-8.656,19.333-19.333S32.255,1.103,21.577,1.103z M19.179,30.599c-4.396,0-7.959-3.564-7.959-7.961
		c0-4.394,7.959-16.139,7.959-16.139s2.812,4.149,5.093,8.439c-1.662,2.611-4.513,7.46-4.513,10.021c0,2.022,0.874,3.84,2.257,5.11
		C21.135,30.406,20.18,30.599,19.179,30.599z M26.706,30.186c-2.887,0-5.227-2.342-5.227-5.228c0-2.887,5.227-10.601,5.227-10.601
		s5.229,7.713,5.229,10.601C31.935,27.844,29.594,30.186,26.706,30.186z"/>
	<path fill="#A9D7E5" d="M19.116,27.615c-2.709,0-4.913-2.204-4.913-4.914c0-0.237-0.193-0.43-0.43-0.43
		c-0.238,0-0.43,0.193-0.43,0.43c0,3.184,2.589,5.773,5.773,5.773c0.237,0,0.429-0.193,0.429-0.429
		C19.546,27.808,19.353,27.615,19.116,27.615z"/>
</g>
</svg>
