<?xml version="1.0" encoding="utf-8"?>
<!-- Generator: Adobe Illustrator 17.0.0, SVG Export Plug-In . SVG Version: 6.00 Build 0)  -->
<!DOCTYPE svg PUBLIC "-//W3C//DTD SVG 1.1//EN" "http://www.w3.org/Graphics/SVG/1.1/DTD/svg11.dtd">
<svg version="1.1" id="Layer_1" xmlns="http://www.w3.org/2000/svg" xmlns:xlink="http://www.w3.org/1999/xlink" x="0px" y="0px"
	 width="43.155px" height="40.5px" viewBox="0 0 43.155 40.5" enable-background="new 0 0 43.155 40.5" xml:space="preserve">
<g>
	<path fill="#E23627" d="M10.501,18.541c-0.284,0.729-2.522,6.485-3.321,8.539h6.562C12.964,25.028,10.779,19.272,10.501,18.541z"/>
	<path fill="#E23627" d="M29.853,27.08h6.533c-0.791-2.083-2.951-7.774-3.227-8.501C32.877,19.304,30.664,24.995,29.853,27.08z"/>
	<path fill="#E23627" d="M21.762,1.438c-10.677,0-19.333,8.656-19.333,19.333s8.656,19.333,19.333,19.333
		s19.333-8.656,19.333-19.333S32.439,1.438,21.762,1.438z M25.839,31.482h-7.75v-0.93h1.212v-0.481h1.927
		c-0.307-0.234-0.507-0.604-0.507-1.018v-7.341c0-0.493,0.283-0.923,0.694-1.137c-0.019-1.314-0.041-2.595-0.066-3.724
		c-0.019-0.876-0.025-1.689-0.021-2.433c0.086,0.054,0.186,0.099,0.308,0.128c0.011,0.001,0.156,0.018,0.207,0.024
		c0.051-0.006,0.196-0.023,0.207-0.024c0.184-0.044,0.32-0.123,0.429-0.215c0.006,0.752,0.006,1.591-0.004,2.52
		c-0.012,1.153-0.025,2.401-0.04,3.659c0.49,0.179,0.842,0.651,0.842,1.202v7.341c0,0.414-0.199,0.784-0.507,1.018h1.854v0.481
		h1.212V31.482z M28.274,27.08h1.142l3.555-9.142l0.016-0.041l-0.005-4.46c0,0-0.416-0.606-1.039-0.606
		c-0.904,0-1.039,0.433-1.039,0.433s-6.581,0-7.447,0c-1.097,0-0.847,0.78-1.495,0.928c0,0-0.08,0.022-0.118,0.018
		c-0.037,0.004-0.117-0.018-0.117-0.018c-0.648-0.148-0.398-0.928-1.495-0.928c-0.866,0-7.447,0-7.447,0s-0.135-0.433-1.039-0.433
		c-0.547,0-0.934,0.467-1.021,0.581v4.575l3.452,9.093h1.071c-2.524,2.524-6.617,2.524-9.14,0h0.635l3.57-9.18l0.048-0.122v-4.513
		c0,0,0.396-1.138,1.552-1.138c0.57,0,1.162,0.402,1.162,0.402h7.807l0.26-1.151c-0.066-0.128-0.106-0.274-0.106-0.43
		c0-0.49,0.368-0.886,0.821-0.886s0.821,0.397,0.821,0.886c0,0.17-0.046,0.327-0.122,0.462l0.253,1.12h7.807
		c0,0,0.592-0.402,1.162-0.402c1.156,0,1.552,1.138,1.552,1.138l0.023,4.678l3.469,9.138h0.594
		C34.891,29.604,30.799,29.604,28.274,27.08z"/>
	<path fill="#E23627" d="M36.426,27.187h0.435l-0.041-0.107h-0.435C36.398,27.114,36.414,27.155,36.426,27.187z"/>
	<path fill="#E23627" d="M29.811,27.187c0.012-0.032,0.028-0.073,0.042-0.107h-0.437l-0.042,0.107H29.811z"/>
	<polygon fill="#E23627" points="33.352,17.995 33.352,17.942 33.163,17.445 32.987,17.898 32.987,17.995 	"/>
	<path fill="#E23627" d="M21.453,11.719c-0.018,0.223-0.049,0.648-0.079,1.251h0.969c-0.028-0.623-0.056-1.041-0.072-1.257
		c0.117-0.074,0.214-0.179,0.285-0.304l-0.05-0.222h-1.32l-0.043,0.191C21.215,11.519,21.322,11.639,21.453,11.719z"/>
	<path fill="#E23627" d="M7.154,27.149c0.008-0.021,0.018-0.048,0.027-0.069H6.744l-0.027,0.069H7.154z"/>
	<path fill="#E23627" d="M13.769,27.149h0.435l-0.026-0.069h-0.435C13.751,27.101,13.761,27.128,13.769,27.149z"/>
	<polygon fill="#E23627" points="10.361,17.778 10.361,17.995 10.726,17.995 10.726,17.987 10.506,17.407 	"/>
</g>
</svg>
